<svg width="18" height="20" viewBox="0 0 18 20" fill="none" xmlns="http://www.w3.org/2000/svg">
<path d="M3.55558 1L0.888916 4.55556V17C0.888916 17.4715 1.07622 17.9237 1.40961 18.2571C1.74301 18.5905 2.1952 18.7778 2.66669 18.7778H15.1111C15.5826 18.7778 16.0348 18.5905 16.3682 18.2571C16.7016 17.9237 16.8889 17.4715 16.8889 17V4.55556L14.2222 1H3.55558Z" stroke="black" stroke-width="1.33333" stroke-linecap="round" stroke-linejoin="round"/>
<path d="M0.888916 4.55555H16.8889" stroke="black" stroke-width="1.33333" stroke-linecap="round" stroke-linejoin="round"/>
<path d="M12.4445 8.11111C12.4445 9.0541 12.0699 9.95847 11.4031 10.6253C10.7363 11.2921 9.83192 11.6667 8.88893 11.6667C7.94594 11.6667 7.04157 11.2921 6.37477 10.6253C5.70798 9.95847 5.33337 9.0541 5.33337 8.11111" stroke="black" stroke-width="1.33333" stroke-linecap="round" stroke-linejoin="round"/>
</svg>
