<svg width="17" height="17" viewBox="0 0 17 17" fill="none" xmlns="http://www.w3.org/2000/svg">
<path d="M15.8887 9.01401C15.7564 10.4461 15.2189 11.8108 14.3392 12.9485C13.4596 14.0863 12.2741 14.95 10.9215 15.4386C9.56885 15.9271 8.10506 16.0204 6.70138 15.7074C5.2977 15.3944 4.01219 14.6881 2.99527 13.6712C1.97834 12.6543 1.27206 11.3688 0.959074 9.96509C0.646086 8.56141 0.739336 7.09762 1.22791 5.745C1.71648 4.39238 2.58018 3.20689 3.71792 2.32722C4.85567 1.44756 6.22041 0.910111 7.65246 0.777771C6.81404 1.91206 6.41059 3.30959 6.51548 4.7162C6.62038 6.12281 7.22665 7.44505 8.22404 8.44243C9.22142 9.43982 10.5437 10.0461 11.9503 10.151C13.3569 10.2559 14.7544 9.85243 15.8887 9.01401Z" fill="#F9F9F9" stroke="black" stroke-width="1.33333" stroke-linecap="round" stroke-linejoin="round"/>
</svg>
